<svg width="67" height="70" viewBox="0 0 67 70" fill="none" xmlns="http://www.w3.org/2000/svg">
<g filter="url(#filter0_d_19_250)">
<path d="M35.0762 40.9451C35.0762 41.8598 34.4411 42.3171 33.1707 42.3171C31.748 42.3171 31.0366 41.8598 31.0366 40.9451C31.0366 36.7276 29.6392 33.2978 26.8445 30.6555C24.3547 28.4197 21.9411 27.3018 19.6037 27.3018C16.1484 27.3018 13.9888 28.6738 13.125 31.4177L12.8201 33.4756V33.628C12.8201 35.6606 14.3191 38.4807 17.3171 42.0884C18.1301 43.0031 18.8161 43.7144 19.375 44.2226C20.188 44.8831 21.5346 45.2134 23.4146 45.2134C25.3963 45.2134 28.5976 44.8323 33.0183 44.0701C37.4898 44.8323 40.7165 45.2134 42.6982 45.2134C44.6291 45.2134 45.9756 44.8831 46.7378 44.2226C48.872 42.3425 50.6504 40.0559 52.0732 37.3628C52.8862 35.8384 53.2927 34.5935 53.2927 33.628C53.2927 30.4268 51.8445 28.4197 48.9482 27.6067C48.186 27.4035 47.373 27.3018 46.5092 27.3018C44.1718 27.3018 41.7835 28.4451 39.3445 30.7317C36.499 33.2724 35.0762 36.6768 35.0762 40.9451ZM51.6159 33.628C51.6159 35.6606 50.2185 38.0488 47.4238 40.7927L45.4421 42.4695L44.6799 42.9268C43.7144 43.0793 42.6982 43.1555 41.6311 43.1555C38.4807 43.1555 36.9055 42.5203 36.9055 41.25C37.0071 37.3374 38.1758 34.2886 40.4116 32.1037C42.3425 30.1728 44.3242 29.2073 46.3567 29.2073C48.9482 29.2073 50.5996 30.1474 51.311 32.0274L51.6159 33.628ZM44.375 52.9878C44.375 51.6667 40.6403 51.0061 33.1707 51.0061C31.1382 51.0061 29.3344 51.0823 27.7592 51.2348L25.9299 51.3872C23.186 51.7429 21.814 52.251 21.814 52.9116C21.814 53.6738 22.5 54.0549 23.872 54.0549L33.0945 53.2927L42.2409 54.0549C43.6636 54.0549 44.375 53.6992 44.375 52.9878ZM48.6433 54.8171C48.5417 58.2724 43.3587 60 33.0945 60C22.9319 60 17.7744 58.2724 17.622 54.8171C17.5711 51.565 17.0884 48.6687 16.1738 46.1281C15.6148 44.7561 14.5478 43.0031 12.9726 40.8689C10.9909 38.1758 10 35.7876 10 33.7043C10 30.4522 11.3974 27.937 14.1921 26.1585C15.7673 25.1423 17.5203 24.6342 19.4512 24.6342C22.0935 24.6342 24.6087 25.5996 26.997 27.5305C26.997 25.1931 27.2256 23.5925 27.6829 22.7287C28.0386 21.7632 29.2073 20.5945 31.189 19.2226V17.4695L28.064 15.564V12.8201H30.8842L31.7988 10H34.3902L35.3811 12.8201H38.125V15.564L35.0762 17.4695V19.2226C37.0071 20.6453 38.2012 21.8648 38.6585 22.8811L39.1921 25.0915C39.2429 25.7012 39.2937 26.5142 39.3445 27.5305C41.7327 25.5996 44.1972 24.6342 46.7378 24.6342C50.1423 24.6342 52.7846 25.9299 54.6646 28.5213C55.7317 30.0457 56.2653 31.7734 56.2653 33.7043C56.2653 35.7876 55.2744 38.2012 53.2927 40.9451L51.5396 43.3842C49.6596 46.2297 48.6941 50.0407 48.6433 54.8171ZM14.5732 33.628C14.5732 31.4939 15.6402 30.122 17.7744 29.5122C18.3841 29.3089 19.0193 29.2073 19.6799 29.2073C21.814 29.2073 23.8466 30.1728 25.7774 32.1037C27.9624 34.3394 29.1057 37.3882 29.2073 41.25C29.2581 42.3679 28.0894 43.0031 25.7012 43.1555C25.3455 43.1555 24.9644 43.1555 24.5579 43.1555C23.5417 43.1555 22.5 43.0793 21.4329 42.9268C19.7561 42.1138 18.0793 40.5132 16.4024 38.125C15.1829 36.3465 14.5732 34.8476 14.5732 33.628Z" fill="black"/>
</g>
<defs>
<filter id="filter0_d_19_250" x="0" y="0" width="66.2653" height="70" filterUnits="userSpaceOnUse" color-interpolation-filters="sRGB">
<feFlood flood-opacity="0" result="BackgroundImageFix"/>
<feColorMatrix in="SourceAlpha" type="matrix" values="0 0 0 0 0 0 0 0 0 0 0 0 0 0 0 0 0 0 127 0" result="hardAlpha"/>
<feOffset/>
<feGaussianBlur stdDeviation="5"/>
<feComposite in2="hardAlpha" operator="out"/>
<feColorMatrix type="matrix" values="0 0 0 0 1 0 0 0 0 1 0 0 0 0 1 0 0 0 0.5 0"/>
<feBlend mode="normal" in2="BackgroundImageFix" result="effect1_dropShadow_19_250"/>
<feBlend mode="normal" in="SourceGraphic" in2="effect1_dropShadow_19_250" result="shape"/>
</filter>
</defs>
</svg>
