<svg width="84" height="90" viewBox="0 0 84 90" fill="none" xmlns="http://www.w3.org/2000/svg">
<path d="M35.5025 56.1585C31.113 56.1585 28.9183 56.847 28.9184 58.2241C28.9183 59.429 30.8548 60.1606 34.7279 60.4188H41.8284C50.4349 60.4188 54.7382 59.6872 54.7383 58.2241C54.7382 56.847 52.5436 56.1585 48.1543 56.1585H35.5025ZM35.5025 48.1543C31.7155 48.1543 29.6068 48.5846 29.1766 49.4453C29.0043 49.6174 28.9183 49.8756 28.9184 50.2199C28.9183 51.1666 29.822 51.726 31.6295 51.8982C33.8671 52.1564 37.2667 52.2855 41.8284 52.2855C46.3898 52.2855 49.8325 52.1564 52.1564 51.8982C53.8776 51.726 54.7382 51.1666 54.7383 50.2199C54.7382 48.8428 52.5436 48.1543 48.1543 48.1543H35.5025ZM59.5151 53.7055L62.097 63.6462C62.0969 66.6586 59.0416 68.4229 52.931 68.9393C57.4063 70.6607 61.5806 71.5214 65.4537 71.5214C65.97 71.5214 68.5089 71.3922 73.0706 71.134C76.8574 71.134 79.9558 73.1136 82.3657 77.0727C82.7099 77.7612 83.1402 78.5358 83.6567 79.3964L79.0092 86.4969C77.632 88.2183 76.1688 89.3371 74.6198 89.8535C74.2754 88.0461 71.5212 86.9273 66.3574 86.4969L63.259 86.2387C52.6727 85.3781 45.5291 83.0973 41.8284 79.3964C38.4717 82.9252 33.3507 84.9477 26.4655 85.4641C24.9163 85.6363 22.8937 85.8945 20.3978 86.2387C14.1149 86.7551 10.4571 87.6588 9.42432 88.9498C9.25218 89.208 9.12305 89.5093 9.03699 89.8535C6.79928 88.9068 4.69065 86.7551 2.71112 83.3985C1.93651 82.0215 1.0328 80.6874 0 79.3964C2.3238 75.0931 4.81973 72.5111 7.48779 71.6504C8.43455 71.3062 9.46731 71.134 10.5862 71.134C10.5862 71.134 13.1252 71.2631 18.2031 71.5214C22.1622 71.5214 26.3364 70.6607 30.7258 68.9393C24.615 68.4229 21.5597 66.6586 21.5597 63.6462C21.5597 63.388 22.2482 61.1934 23.6253 57.0621C24.0556 55.6851 24.2708 54.7383 24.2708 54.2219C19.0207 47.853 16.3957 42.2157 16.3957 37.3099C16.3957 31.6295 19.1928 26.4655 24.7872 21.8179C29.7789 17.6006 33.3938 15.3629 35.6316 15.1047C33.738 12.7809 32.7913 10.371 32.7914 7.87509C32.7913 3.82996 34.8138 1.33404 38.8591 0.387291C39.8057 0.129191 40.7955 0.00011 41.8284 0C46.1316 0.00011 48.9287 1.59225 50.2198 4.7767L50.8654 7.48779V7.87509C50.8653 10.285 49.9185 12.6948 48.0251 15.1047C49.6603 15.535 52.1132 16.8691 55.3839 19.1068C63.3019 24.615 67.2609 30.6827 67.261 37.3099C67.2609 42.3017 64.679 47.767 59.5151 53.7055ZM44.1522 41.6993V35.7607H48.6707V30.8549H44.1522V25.3036H39.5046V30.8549H34.9861V35.7607H39.5046V41.6993H44.1522ZM41.8284 5.29311C40.1069 5.29311 39.0311 6.06769 38.6009 7.61691L38.4718 8.39148C38.4717 10.0267 39.3323 11.0596 41.0538 11.4899C41.3119 11.576 41.57 11.619 41.8284 11.619C43.9799 11.619 45.0558 10.5432 45.0559 8.39148C45.0558 6.32588 43.9799 5.29311 41.8284 5.29311Z" fill="black"/>
</svg>
