<svg width="78" height="77" viewBox="0 0 78 77" fill="none" xmlns="http://www.w3.org/2000/svg">
<path d="M17.8159 30.0803C19.9675 30.0803 22.2482 28.8323 24.6581 26.3364C25.9491 25.0454 26.5946 23.9265 26.5946 22.9798C26.5946 21.8609 25.5618 21.3015 23.4962 21.3015C21.0864 21.3015 19.0638 22.3773 17.4285 24.529C16.5678 25.5618 16.1375 26.6376 16.1375 27.7565C16.1375 29.3057 16.697 30.0803 17.8159 30.0803ZM15.6211 1.8074C15.7932 1.8074 16.2236 1.76436 16.9121 1.67829C20.7851 1.67829 24.9163 2.96931 29.3057 5.5513C29.8221 5.89557 30.0803 6.0677 30.0803 6.0677C32.5762 2.02257 34.4697 0 35.7607 0C38.5148 1.5492 40.3223 3.22751 41.1829 5.0349C41.6133 5.89558 42.2587 7.70295 43.1194 10.4571C43.8079 10.2849 44.4965 10.1989 45.185 10.1989C52.4146 10.1989 59.2999 14.6313 65.841 23.4962C73.6731 33.7381 77.5891 47.6809 77.5891 65.3245C77.5891 69.2836 77.417 72.8554 77.0727 76.0398H22.5925C22.7647 70.2734 24.8733 64.8082 28.9184 59.6441C29.3487 58.9556 29.9512 58.181 30.7258 57.3204C33.9103 53.2752 35.8467 50.1768 36.5353 48.0252C36.8795 46.9063 37.1378 45.7444 37.3099 44.5395C31.6295 46.7772 27.3692 50.0908 24.529 54.4802C23.238 56.6318 21.8179 58.8696 20.2687 61.1934C19.8383 61.8819 19.1929 62.2262 18.3322 62.2262C16.1806 62.2262 15.1047 60.8921 15.1047 58.2241C14.244 59.3429 13.2543 59.9024 12.1354 59.9024C12.1354 59.9024 11.2747 59.6872 9.55341 59.2569C5.85255 58.3101 3.22756 56.6749 1.67834 54.3511C1.16195 53.5765 0.60248 52.5437 0 51.2527C0.60248 47.5518 3.57177 40.1931 8.9079 29.1766C12.7809 21.2584 15.1908 15.578 16.1375 12.1354C16.2236 11.3608 16.2666 10.2419 16.2666 8.77879C16.2666 7.57386 16.0514 5.25007 15.6211 1.8074ZM7.87512 47.1215C5.80952 47.1215 4.43243 48.0251 3.7439 49.8326C3.57177 50.2629 3.48572 50.6932 3.48572 51.1236C3.48572 51.4678 3.61484 51.8982 3.87305 52.4145C6.11078 52.4145 7.48782 51.4678 8.00421 49.5744C8.09029 49.3162 8.1333 49.0149 8.1333 48.6707C8.1333 48.4985 8.04725 47.9821 7.87512 47.1215ZM71.2632 67.0028V62.2262C71.2632 48.1973 67.6914 36.7074 60.5479 27.7565C54.3511 20.0105 48.7137 16.1375 43.6358 16.1375C43.6358 16.1375 43.1194 16.0514 42.0866 15.8793C41.9145 15.9654 41.7853 16.0514 41.6993 16.1375C40.5804 16.1375 40.021 16.6109 40.021 17.5576C40.021 17.9019 40.2792 18.3322 40.7956 18.8486C45.4432 19.2789 50.5211 22.5925 56.0294 28.7893C63.0007 36.8795 66.4865 48.5846 66.4865 63.9044C66.4865 63.9044 66.4865 64.1626 66.4865 64.679C66.4865 68.466 67.3041 70.3594 68.9394 70.3594C70.3165 70.3594 71.0911 69.2406 71.2632 67.0028Z" fill="black"/>
</svg>
