<svg width="56" height="76" viewBox="0 0 56 76" fill="none" xmlns="http://www.w3.org/2000/svg">
<path d="M0.129089 75.9107C0.0430494 74.8779 0 72.8554 0 69.843C0 58.9987 3.35665 50.9514 10.0698 45.7014C12.0494 44.0661 14.4591 42.5599 17.2994 41.1829C13.9428 40.1501 11.662 37.6111 10.4571 33.566C10.1128 32.275 9.94073 30.941 9.94073 29.5639C9.94073 23.7974 12.91 19.7093 18.8486 17.2994C17.2993 14.7174 16.5247 12.2645 16.5248 9.9407C16.5247 6.06771 18.4182 3.18448 22.2052 1.29101C23.9264 0.430338 25.7769 0 27.7565 0C32.0598 0 35.2442 1.6783 37.3099 5.0349C38.2565 6.49803 38.7299 8.13331 38.73 9.9407C38.7299 12.4366 37.9983 14.8895 36.5353 17.2994C39.7197 18.5904 42.0004 20.3117 43.3776 22.4634C44.7545 24.7872 45.443 27.154 45.4432 29.5639C45.443 34.0393 43.8939 37.439 40.7956 39.7628C40.0209 40.4513 39.1602 40.9247 38.2136 41.1829C46.1316 45.228 51.2526 50.5211 53.5765 57.0622C54.7813 60.677 55.3838 64.9372 55.3839 69.843C55.3838 72.8554 55.3407 74.8779 55.2548 75.9107H0.129089Z" fill="black"/>
</svg>
