<svg width="79" height="85" viewBox="0 0 79 85" fill="none" xmlns="http://www.w3.org/2000/svg">
<path d="M42.4739 52.4145C42.4739 53.9638 41.398 54.7383 39.2464 54.7383C36.8365 54.7383 35.6316 53.9638 35.6316 52.4145C35.6316 45.271 33.2647 39.4615 28.5311 34.9861C24.3138 31.1991 20.2257 29.3057 16.2666 29.3057C10.4141 29.3057 6.75623 31.6295 5.2931 36.2771L4.7767 39.7628V40.021C4.7767 43.4636 7.31566 48.2403 12.3936 54.3511C13.7707 55.9003 14.9326 57.1052 15.8793 57.9659C17.2564 59.0847 19.5371 59.6441 22.7216 59.6441C26.0782 59.6441 31.5004 58.9986 38.9882 57.7076C46.562 58.9986 52.0273 59.6441 55.3839 59.6441C58.6544 59.6441 60.9351 59.0847 62.2262 57.9659C65.841 54.7814 68.8533 50.9084 71.2631 46.3469C72.6402 43.7649 73.3288 41.6562 73.3288 40.021C73.3288 34.5988 70.8758 31.1991 65.97 29.8221C64.679 29.4778 63.302 29.3057 61.8389 29.3057C57.8798 29.3057 53.8347 31.2422 49.7035 35.1152C44.8837 39.4185 42.4739 45.185 42.4739 52.4145ZM70.4885 40.021C70.4885 43.4636 68.1217 47.5087 63.388 52.1563L60.0315 54.9966L58.7405 55.7711C57.1052 56.0293 55.3839 56.1584 53.5765 56.1584C48.2403 56.1584 45.5723 55.0826 45.5723 52.9309C45.7444 46.3038 47.7239 41.1398 51.5109 37.439C54.7814 34.1684 58.138 32.5332 61.5806 32.5332C65.97 32.5332 68.7672 34.1254 69.9721 37.3099L70.4885 40.021ZM58.2241 72.8123C58.2241 70.5746 51.8982 69.4557 39.2464 69.4557C35.8037 69.4557 32.7483 69.5848 30.0803 69.843L26.9819 70.1012C22.3343 70.7037 20.0105 71.5644 20.0105 72.6832C20.0105 73.9742 21.1724 74.6197 23.4962 74.6197L39.1173 73.3287L54.6093 74.6197C57.0191 74.6197 58.2241 74.0173 58.2241 72.8123ZM65.4537 75.9107C65.2815 81.7633 56.5027 84.6895 39.1173 84.6895C21.904 84.6895 13.1682 81.7633 12.91 75.9107C12.8239 70.4025 12.0063 65.4967 10.4571 61.1934C9.51036 58.8696 7.70296 55.9003 5.0349 52.2855C1.6783 47.7239 0 43.6788 0 40.1501C0 34.6418 2.36684 30.3815 7.1005 27.3692C9.76857 25.6478 12.7379 24.7872 16.0084 24.7872C20.4839 24.7872 24.7442 26.4225 28.7893 29.693C28.7893 25.7339 29.1766 23.0228 29.9512 21.5597C30.5537 19.9244 32.5332 17.9449 35.8898 15.6211V12.6518L30.5967 9.42429V4.77668H35.3734L36.9226 0H41.312L42.9903 4.77668H47.6379V9.42429L42.4739 12.6518V15.6211C45.7444 18.0309 47.767 20.0965 48.5416 21.8179L49.4453 25.5618C49.5313 26.5946 49.6174 27.9716 49.7035 29.693C53.7486 26.4225 57.9228 24.7872 62.2262 24.7872C67.9926 24.7872 72.4681 26.9819 75.6525 31.3713C77.46 33.9533 78.3636 36.8795 78.3636 40.1501C78.3636 43.6788 76.6854 47.767 73.3288 52.4145L70.3595 56.5458C67.175 61.3655 65.5397 67.8205 65.4537 75.9107ZM7.74599 40.021C7.74599 36.4062 9.55339 34.0824 13.1682 33.0496C14.201 32.7053 15.2768 32.5332 16.3957 32.5332C20.0105 32.5332 23.4532 34.1684 26.7237 37.439C30.4246 41.2259 32.3611 46.3899 32.5332 52.9309C32.6193 54.8244 30.6397 55.9003 26.5946 56.1584C25.9921 56.1584 25.3466 56.1584 24.6581 56.1584C22.9368 56.1584 21.1724 56.0293 19.365 55.7711C16.5248 54.3941 13.6846 51.683 10.8444 47.6379C8.7788 44.6255 7.74599 42.0866 7.74599 40.021Z" fill="black"/>
</svg>
