<svg width="90" height="84" viewBox="0 0 90 84" fill="none" xmlns="http://www.w3.org/2000/svg">
<path d="M23.4962 69.843C23.4962 71.2201 24.4859 71.9086 26.4655 71.9086L35.3734 71.2632C35.3733 71.2632 37.9552 71.134 43.1194 70.8759H45.0559L60.1606 71.6505L63.2589 71.9086C65.2383 71.9086 66.2281 71.2201 66.2282 69.843C66.2281 67.3471 60.4617 65.9701 48.9289 65.7119H44.9268C35.2011 65.7119 28.7032 66.4434 25.4327 67.9065C24.1417 68.4229 23.4962 69.0685 23.4962 69.843ZM7.35869 15.8793C5.72341 15.8793 4.69062 16.6969 4.26028 18.3322C4.17421 18.5904 4.13118 18.8486 4.13118 19.1068C4.13118 20.7421 4.94883 21.7749 6.58409 22.2052C6.84228 22.2913 7.10048 22.3343 7.35869 22.3343C9.42428 22.3343 10.4571 21.2585 10.4571 19.1068C10.4571 16.9551 9.42428 15.8793 7.35869 15.8793ZM24.2708 7.746C22.033 7.746 20.9142 8.82184 20.9142 10.9735C20.9142 13.1252 22.033 14.201 24.2708 14.201C26.3364 14.201 27.3692 13.1252 27.3692 10.9735C27.3692 8.82184 26.3364 7.746 24.2708 7.746ZM65.4536 7.746C63.9904 7.746 63.0006 8.47758 62.4843 9.9407L62.3552 10.9735C62.3551 13.1252 63.3879 14.201 65.4536 14.201C67.6052 14.201 68.681 13.1252 68.6811 10.9735C68.681 8.82184 67.6052 7.746 65.4536 7.746ZM82.2366 15.8793C80.1709 15.8793 79.1381 16.9551 79.1382 19.1068C79.1381 21.2585 80.1709 22.3343 82.2366 22.3343C84.3882 22.3343 85.464 21.2585 85.4641 19.1068C85.464 17.4716 84.6464 16.4387 83.0112 16.0084C82.7529 15.9223 82.4947 15.8793 82.2366 15.8793ZM72.9414 77.5891C72.9413 79.9989 68.5089 81.6772 59.6442 82.624L47.1215 83.3985H44.7976C34.2974 83.3985 26.2933 82.4948 20.7851 80.6875C18.117 79.9128 16.783 78.88 16.783 77.5891C16.783 75.0931 17.4715 72.2529 18.8486 69.0685C19.7953 67.175 20.2687 65.8409 20.2687 65.0664C20.2687 63.4311 18.2891 60.2466 14.3301 55.513C12.1784 53.017 10.9305 51.2957 10.5862 50.349C10.5862 49.8326 10.328 48.6707 9.81158 46.8633L8.13329 40.4083C7.01444 36.191 6.28285 31.7156 5.93858 26.9819C1.97952 25.3466 0 22.7216 0 19.1068C0 16.0084 1.42007 13.8137 4.26028 12.5227C5.20701 12.0924 6.23982 11.8772 7.35869 11.8772C10.1989 11.8772 12.3075 13.1682 13.6846 15.7502C14.2871 16.8691 14.5883 17.9879 14.5883 19.1068L13.9428 24.0126C13.9428 27.8856 16.6969 32.6193 22.2052 38.2136C22.6355 34.6849 22.8507 30.984 22.8507 27.111C22.8507 21.3445 21.8179 17.6867 19.7523 16.1375C19.5801 15.9654 19.408 15.8363 19.2359 15.7502C17.6867 14.8035 16.9121 13.1252 16.9121 10.7153C16.9121 7.53085 18.3752 5.33614 21.3015 4.13121C22.2482 3.70088 23.238 3.48571 24.2708 3.48571C27.2831 3.48571 29.4348 4.86279 30.7258 7.6169C31.2422 8.56365 31.5002 9.59643 31.5004 10.7153L30.5966 16.2666C30.5966 21.0863 32.9634 28.445 37.6972 38.3427C39.5045 30.2524 40.4082 24.0556 40.4083 19.7523C40.4082 16.1375 39.7626 12.8239 38.4718 9.81162C37.9553 8.69274 37.6971 7.83208 37.6972 7.22961C37.6971 4.04514 39.1171 1.85045 41.9575 0.6455C42.9041 0.21518 43.8938 0 44.9268 0C47.939 0 50.0476 1.42011 51.2527 4.26032C51.6829 5.20705 51.8981 6.19681 51.8982 7.22961C51.8981 7.40174 51.1665 9.68251 49.7035 14.0719C49.3591 15.1908 49.1869 17.0842 49.187 19.7523C49.1869 24.0556 50.0907 30.2524 51.8982 38.3427C56.5457 28.5311 58.8694 21.1724 58.8695 16.2666L58.0949 10.8444V10.7153C58.0948 7.53085 59.558 5.33614 62.4843 4.13121C63.431 3.70088 64.4207 3.48571 65.4536 3.48571C68.4659 3.48571 70.6175 4.86279 71.9086 7.6169C72.4249 8.56365 72.6831 9.59643 72.6832 10.7153C72.6831 13.1252 71.9085 14.8465 70.3594 15.8793C67.9495 17.4285 66.7445 21.2154 66.7446 27.2401C66.7445 31.027 66.9597 34.6849 67.3901 38.2136C72.8983 32.6193 75.6524 27.8856 75.6525 24.0126L75.007 19.1068C75.0069 16.0945 76.384 13.9428 79.1382 12.6518C80.0849 12.1354 81.1177 11.8772 82.2366 11.8772C85.3349 11.8772 87.5296 13.2543 88.8207 16.0084L89.5953 18.4613V19.1068C89.5952 22.5495 87.6157 25.1745 83.6567 26.9819C83.1402 32.9205 81.6771 40.1931 79.2673 48.7998C79.0951 49.4883 79.009 50.0047 79.0091 50.349C79.009 50.9514 78.3635 51.9412 77.0726 53.3183L75.5234 55.2548C71.3921 59.9884 69.3265 63.259 69.3266 65.0664C69.3265 65.5828 70.3593 68.2508 72.425 73.0706C72.7692 74.7919 72.9413 76.2981 72.9414 77.5891ZM44.9268 3.74391C43.2914 3.74391 42.2586 4.56155 41.8283 6.19681C41.7422 6.45501 41.6992 6.7132 41.6993 6.9714C41.6992 8.60667 42.5168 9.63947 44.1522 10.0698C44.4103 10.1559 44.6685 10.1989 44.9268 10.1989C46.9923 10.1989 48.025 9.12308 48.0251 6.9714C48.025 5.42221 47.2935 4.3894 45.8304 3.87301C45.5721 3.78695 45.2709 3.74391 44.9268 3.74391ZM68.1647 54.0929C68.1646 51.3387 60.4186 49.9617 44.9268 49.9617C29.3487 49.9617 21.5597 51.3818 21.5597 54.222C21.5597 55.4269 22.6785 56.0294 24.9163 56.0294C27.4983 56.0294 30.7258 55.8142 34.5988 55.3839L42.9903 55.1257H45.0559C47.4656 55.1257 52.0271 55.3408 58.7404 55.7712L65.0663 56.0294C67.1318 56.0294 68.1646 55.3839 68.1647 54.0929Z" fill="black"/>
</svg>
