<svg width="70" height="70" viewBox="0 0 70 70" fill="none" xmlns="http://www.w3.org/2000/svg">
<g filter="url(#filter0_d_26_6)">
<path d="M21.4809 29.7793C22.8675 29.7793 24.3372 28.9587 25.8902 27.3175C26.7221 26.4686 27.1381 25.7329 27.1381 25.1104C27.1381 24.3746 26.4726 24.0068 25.1414 24.0068C23.5885 24.0068 22.2851 24.7142 21.2313 26.129C20.6767 26.8081 20.3993 27.5156 20.3993 28.2513C20.3993 29.27 20.7599 29.7793 21.4809 29.7793ZM20.0666 11.1885C20.1775 11.1885 20.4548 11.1602 20.8985 11.1036C23.3944 11.1036 26.0566 11.9525 28.8852 13.6503C29.218 13.8766 29.3844 13.9898 29.3844 13.9898C30.9928 11.3299 32.213 10 33.0449 10C34.8197 11.0187 35.9845 12.1222 36.5391 13.3107C36.8165 13.8766 37.2324 15.0651 37.787 16.8761C38.2307 16.7629 38.6744 16.7063 39.1182 16.7063C43.7771 16.7063 48.2141 19.6208 52.4293 25.4499C57.4765 32.1845 60 41.3526 60 52.9542C60 55.5574 59.8891 57.906 59.6672 60H24.5591C24.67 56.2083 26.0288 52.6146 28.6356 49.219C28.9129 48.7663 29.3012 48.2569 29.8004 47.691C31.8525 45.0311 33.1004 42.9938 33.5441 41.5789C33.7659 40.8432 33.9324 40.0792 34.0433 39.2869C30.3827 40.7583 27.6373 42.9372 25.807 45.8234C24.975 47.2383 24.0599 48.7097 23.0616 50.2377C22.7842 50.6904 22.3683 50.9168 21.8137 50.9168C20.4271 50.9168 19.7338 50.0396 19.7338 48.2852C19.1792 49.0209 18.5413 49.3888 17.8203 49.3888C17.8203 49.3888 17.2657 49.2473 16.1564 48.9644C13.7715 48.3418 12.0799 47.2666 11.0816 45.7385C10.7488 45.2292 10.3883 44.5501 10 43.7012C10.3883 41.2677 12.3017 36.429 15.7404 29.1851C18.2363 23.9785 19.7893 20.2433 20.3993 17.9796C20.4548 17.4703 20.4825 16.7346 20.4825 15.7725C20.4825 14.9802 20.3439 13.4522 20.0666 11.1885ZM15.0749 40.9847C13.7438 40.9847 12.8563 41.5789 12.4126 42.7674C12.3017 43.0504 12.2463 43.3333 12.2463 43.6163C12.2463 43.8427 12.3295 44.1256 12.4959 44.4652C13.9379 44.4652 14.8253 43.8427 15.1581 42.5976C15.2136 42.4278 15.2413 42.2298 15.2413 42.0034C15.2413 41.8902 15.1858 41.5507 15.0749 40.9847ZM55.9235 54.0577V50.9168C55.9235 41.6921 53.6218 34.137 49.0183 28.2513C45.025 23.1579 41.3921 20.6112 38.1198 20.6112C38.1198 20.6112 37.787 20.5546 37.1215 20.4414C37.0106 20.498 36.9273 20.5546 36.8719 20.6112C36.1509 20.6112 35.7904 20.9225 35.7904 21.545C35.7904 21.7714 35.9568 22.0543 36.2895 22.3939C39.2845 22.6769 42.5568 24.8557 46.1065 28.9304C50.599 34.2501 52.8453 41.9468 52.8453 52.0204C52.8453 52.0204 52.8453 52.1902 52.8453 52.5297C52.8453 55.0198 53.3722 56.2649 54.426 56.2649C55.3134 56.2649 55.8126 55.5291 55.9235 54.0577Z" fill="black"/>
</g>
<defs>
<filter id="filter0_d_26_6" x="0" y="0" width="70" height="70" filterUnits="userSpaceOnUse" color-interpolation-filters="sRGB">
<feFlood flood-opacity="0" result="BackgroundImageFix"/>
<feColorMatrix in="SourceAlpha" type="matrix" values="0 0 0 0 0 0 0 0 0 0 0 0 0 0 0 0 0 0 127 0" result="hardAlpha"/>
<feOffset/>
<feGaussianBlur stdDeviation="5"/>
<feComposite in2="hardAlpha" operator="out"/>
<feColorMatrix type="matrix" values="0 0 0 0 1 0 0 0 0 1 0 0 0 0 1 0 0 0 0.5 0"/>
<feBlend mode="normal" in2="BackgroundImageFix" result="effect1_dropShadow_26_6"/>
<feBlend mode="normal" in="SourceGraphic" in2="effect1_dropShadow_26_6" result="shape"/>
</filter>
</defs>
</svg>
