<svg width="56" height="76" viewBox="0 0 56 76" fill="none" xmlns="http://www.w3.org/2000/svg">
<path d="M50.7363 70.7467C50.7362 61.7098 48.2833 54.9535 43.3776 50.4781C41.7422 48.9288 39.7196 47.4657 37.3099 46.0887C33.9532 44.1091 32.2749 42.3017 32.275 40.6665C32.2749 39.8058 33.1356 38.8591 34.857 37.8263C37.525 36.3631 39.1171 34.6418 39.6337 32.6623C39.8057 31.8877 39.8918 30.941 39.8919 29.8221C39.8918 25.863 37.8692 22.7646 33.8242 20.5269L31.5004 18.8486C31.0699 18.4183 30.8548 17.9449 30.8549 17.4285C30.8548 15.9654 31.3712 14.5022 32.4041 13.0391C33.0925 12.0924 33.4368 10.9735 33.4369 9.6825C33.4368 7.44479 32.2318 5.80951 29.8221 4.7767C29.0474 4.51849 28.2728 4.3894 27.4983 4.3894C25.0883 4.3894 23.367 5.46523 22.3343 7.61688C21.9899 8.30542 21.8178 8.99398 21.8179 9.6825C21.8178 10.4571 22.3773 11.9202 23.4962 14.0719C24.1846 15.2768 24.4858 16.3957 24.3999 17.4285C24.3998 18.4613 23.41 19.4941 21.4306 20.5269C17.4714 22.8507 15.4919 25.9491 15.492 29.8221C15.4919 33.1787 17.1702 35.8467 20.5269 37.8263C22.1621 38.9451 22.9797 39.8919 22.9798 40.6665C22.9797 42.3017 21.3014 44.1091 17.9449 46.0887C11.7481 49.8756 7.78902 54.4802 6.06769 59.9023C5.12096 62.9147 4.64764 66.5295 4.64764 70.7467H50.7363ZM0.129089 75.9107C0.0430194 74.8779 0 72.8984 0 69.9721C0 59.386 3.09844 51.4678 9.29523 46.2178C11.3608 44.4964 13.9857 42.8182 17.1703 41.1829C13.8998 40.1501 11.7051 37.6541 10.5862 33.6951C10.1559 32.4041 9.94067 31.07 9.94067 29.693C9.94067 23.9265 12.8669 19.7953 18.7195 17.2994C17.3423 14.8034 16.6538 12.3506 16.6539 9.94069C16.6538 5.98163 18.5903 3.05537 22.4634 1.16191C24.0985 0.387301 25.8629 0 27.7565 0C32.1458 0 35.3733 1.6783 37.439 5.0349C38.3856 6.49804 38.859 8.1333 38.8591 9.94069C38.859 12.2645 38.0844 14.7174 36.5353 17.2994C42.4738 19.7093 45.4431 23.8404 45.4432 29.693C45.4431 34.2545 43.7648 37.6972 40.4083 40.021C39.7196 40.5374 38.945 40.9247 38.0845 41.1829C45.8304 45.142 50.8653 50.1768 53.1892 56.2875C54.6522 60.0745 55.3838 64.636 55.3839 69.9721C55.3838 72.8123 55.3407 74.7919 55.2548 75.9107H0.129089Z" fill="black"/>
</svg>
