<svg width="70" height="70" viewBox="0 0 70 70" fill="none" xmlns="http://www.w3.org/2000/svg">
<g filter="url(#filter0_d_19_253)">
<path d="M31.2192 41.25C28.5956 41.25 27.2839 41.6331 27.284 42.3994C27.2839 43.0699 28.4413 43.477 30.7562 43.6207H35C40.1439 43.6207 42.716 43.2136 42.716 42.3994C42.716 41.6331 41.4043 41.25 38.7809 41.25H31.2192ZM31.2192 36.796C28.9557 36.796 27.6954 37.0354 27.4383 37.5144C27.3353 37.6102 27.2839 37.7538 27.284 37.9454C27.2839 38.4722 27.824 38.7835 28.9043 38.8793C30.2417 39.023 32.2736 39.0948 35 39.0948C37.7263 39.0948 39.7839 39.023 41.1728 38.8793C42.2016 38.7835 42.716 38.4722 42.716 37.9454C42.716 37.1791 41.4043 36.796 38.7809 36.796H31.2192ZM45.571 39.8851L47.1142 45.4167C47.1141 47.0929 45.288 48.0747 41.6358 48.3621C44.3106 49.3199 46.8055 49.7989 49.1204 49.7989C49.429 49.7989 50.9464 49.727 53.6728 49.5833C55.9362 49.5833 57.788 50.6849 59.2284 52.8879C59.4341 53.2711 59.6913 53.7021 60 54.181L57.2222 58.1322C56.3991 59.09 55.5246 59.7127 54.5988 60C54.3929 58.9943 52.7469 58.3717 49.6605 58.1322L47.8087 57.9885C41.4814 57.5096 37.2119 56.2404 35 54.181C32.9938 56.1446 29.9331 57.2701 25.8179 57.5575C24.892 57.6533 23.6831 57.7969 22.1913 57.9885C18.4362 58.2759 16.25 58.7787 15.6327 59.4971C15.5298 59.6408 15.4527 59.8084 15.4012 60C14.0638 59.4732 12.8035 58.2759 11.6204 56.4081C11.1574 55.6418 10.6173 54.8994 10 54.181C11.3889 51.7864 12.8807 50.3496 14.4753 49.8707C15.0412 49.6791 15.6584 49.5833 16.3272 49.5833C16.3272 49.5833 17.8447 49.6552 20.8797 49.7989C23.2459 49.7989 25.7407 49.3199 28.3642 48.3621C24.7119 48.0747 22.8858 47.0929 22.8858 45.4167C22.8858 45.273 23.2973 44.0517 24.1204 41.7529C24.3776 40.9866 24.5062 40.4598 24.5062 40.1724C21.3683 36.6284 19.7994 33.4914 19.7994 30.7615C19.7994 27.6006 21.4712 24.727 24.8148 22.1408C27.7983 19.7941 29.9588 18.5488 31.2963 18.4052C30.1646 17.1121 29.5987 15.7711 29.5988 14.3822C29.5987 12.1312 30.8075 10.7423 33.2253 10.2155C33.7911 10.0719 34.3827 10.0001 35 10C37.5719 10.0001 39.2438 10.886 40.0154 12.658L40.4012 14.1667V14.3822C40.4012 15.7232 39.8353 17.0642 38.7037 18.4052C39.681 18.6446 41.147 19.387 43.1018 20.6322C47.8343 23.6973 50.2006 27.0738 50.2006 30.7615C50.2006 33.5393 48.6574 36.5805 45.571 39.8851ZM36.3889 33.204V29.8994H39.0895V27.1695H36.3889V24.0805H33.6111V27.1695H30.9105V29.8994H33.6111V33.204H36.3889ZM35 12.9454C33.9711 12.9454 33.3281 13.3764 33.071 14.2385L32.9938 14.6695C32.9938 15.5795 33.5082 16.1542 34.537 16.3937C34.6913 16.4416 34.8456 16.4655 35 16.4655C36.2859 16.4655 36.929 15.8669 36.929 14.6695C36.929 13.5201 36.2859 12.9454 35 12.9454Z" fill="white"/>
</g>
<defs>
<filter id="filter0_d_19_253" x="0" y="0" width="70" height="70" filterUnits="userSpaceOnUse" color-interpolation-filters="sRGB">
<feFlood flood-opacity="0" result="BackgroundImageFix"/>
<feColorMatrix in="SourceAlpha" type="matrix" values="0 0 0 0 0 0 0 0 0 0 0 0 0 0 0 0 0 0 127 0" result="hardAlpha"/>
<feOffset/>
<feGaussianBlur stdDeviation="5"/>
<feComposite in2="hardAlpha" operator="out"/>
<feColorMatrix type="matrix" values="0 0 0 0 0 0 0 0 0 0 0 0 0 0 0 0 0 0 0.5 0"/>
<feBlend mode="normal" in2="BackgroundImageFix" result="effect1_dropShadow_19_253"/>
<feBlend mode="normal" in="SourceGraphic" in2="effect1_dropShadow_19_253" result="shape"/>
</filter>
</defs>
</svg>

