<svg width="84" height="90" viewBox="0 0 84 90" fill="none" xmlns="http://www.w3.org/2000/svg">
<path d="M41.6993 51.5109C35.6745 51.5109 30.9839 51.2527 27.6274 50.7363C28.2297 51.9412 28.531 52.974 28.5311 53.8346C28.531 55.1257 28.2727 56.2015 27.7565 57.0622C30.2523 56.2876 34.8999 55.9003 41.6993 55.9003C48.4984 55.9003 53.146 56.2876 55.642 57.0622C55.1255 56.2015 54.8674 55.1257 54.8675 53.8346C54.8674 52.8019 55.1255 51.7691 55.642 50.7363C51.5968 51.2527 46.9492 51.5109 41.6993 51.5109ZM41.6993 4.77672C39.8918 4.77672 38.6438 5.59433 37.9554 7.2296C37.7831 7.65993 37.6971 8.09028 37.6972 8.5206C37.6971 10.4141 38.6438 11.662 40.5374 12.2645C40.8815 12.3506 41.2688 12.3936 41.6993 12.3936C43.6787 12.3936 44.9697 11.4899 45.5723 9.68251C45.6582 9.33823 45.7012 8.95093 45.7014 8.5206C45.7012 6.79928 44.8406 5.63737 43.1194 5.03491C42.6029 4.86277 42.1295 4.77672 41.6993 4.77672ZM41.6993 59.6441C38.4286 59.6441 34.2114 59.9454 29.0475 60.5479C27.5844 60.72 26.7237 61.5376 26.4655 63.0007C26.4655 64.0335 28.8322 64.679 33.566 64.9372C33.1355 64.8512 33.3077 64.8082 34.0824 64.8082C34.8569 64.8082 37.3958 64.8082 41.6993 64.8082C51.7689 64.8082 56.8038 64.2057 56.804 63.0007C56.8038 61.0212 54.3079 59.9454 49.3162 59.7733H45.5723C44.4533 59.7733 43.5066 59.7302 42.7321 59.6441H41.6993ZM41.5702 47.767C51.2096 47.767 57.1051 46.8633 59.2569 45.0559C60.7199 43.937 61.7957 40.9677 62.4844 36.148C62.0539 31.8446 59.2567 27.7134 54.0928 23.7544C49.273 19.9675 45.0558 17.8588 41.4411 17.4285C38.0844 17.8588 33.9962 19.9675 29.1766 23.7544C24.0987 27.7134 21.3445 31.8446 20.9142 36.148C21.5167 40.6234 22.4634 43.4636 23.7544 44.6686C24.0987 45.0128 24.4859 45.3141 24.9163 45.5723C27.0679 47.0354 32.6192 47.767 41.5702 47.767ZM39.3755 41.4411V35.7607H34.9861V30.7258H39.3755V25.1745H44.0231V30.7258H48.4125V35.7607H44.0231V41.4411H39.3755ZM41.4411 67.7775C40.6664 67.7775 38.3856 69.2836 34.5988 72.2959C31.9306 74.1033 27.6274 75.1792 21.6888 75.5235C17.3855 75.5235 13.9428 75.7386 11.3608 76.1689C8.60667 76.7714 7.22961 77.9333 7.22961 79.6546C7.48781 81.376 8.39146 82.2366 9.94067 82.2366L16.783 81.2038C21.2585 81.2038 25.9491 80.6014 30.8549 79.3964C36.4491 77.9333 40.0639 75.6095 41.6993 72.425C44.023 76.9866 50.0476 79.7407 59.7733 80.6874C59.7732 80.6874 60.892 80.8596 63.1299 81.2038C65.3675 81.2038 66.4864 81.2038 66.4865 81.2038L73.4578 82.2366C75.0069 82.2366 75.9106 81.376 76.1689 79.6546C76.1688 77.9333 74.7918 76.7714 72.0378 76.1689L58.2241 75.1362C53.8345 74.7919 49.6173 73.0705 45.5723 69.9722C43.7648 68.509 42.3877 67.7775 41.4411 67.7775ZM41.6993 79.0091C38.3426 82.3657 33.2647 84.4313 26.4655 85.2059C23.7114 85.4641 18.8916 86.0666 12.0063 87.0133C10.1989 87.3576 9.1661 88.1752 8.9079 89.4662C7.27264 89.0359 4.86273 86.3678 1.67828 81.4621C0.903684 80.2571 0.34427 79.4395 0 79.0091C2.84019 73.587 6.36891 70.8759 10.5862 70.8759L18.2031 71.2632C21.7319 71.2632 25.863 70.4455 30.5967 68.8103C24.486 68.0357 21.4306 66.1852 21.4306 63.259L24.0126 53.4474C24.0126 53.3613 24.0126 53.2752 24.0126 53.1892C18.8486 47.5088 16.2666 42.1726 16.2666 37.1808C16.2666 31.5004 19.0638 26.3364 24.6581 21.6888C29.5638 17.5576 33.1786 15.3629 35.5025 15.1047C33.6089 12.7809 32.6622 10.371 32.6623 7.87509C32.6622 3.91602 34.6417 1.4201 38.6009 0.387299C39.5475 0.129209 40.5803 0.00011 41.6993 0C45.9164 0.00011 48.6705 1.59224 49.9617 4.77672L50.6072 7.48781V7.87509C50.6071 10.5432 49.7033 12.953 47.8961 15.1047C50.2197 15.3629 53.8776 17.6006 58.8696 21.8179C64.3777 26.3794 67.1318 31.5004 67.132 37.1808C67.1318 42.0005 64.5499 47.3366 59.386 53.1892C59.3859 54.3941 59.8162 56.1154 60.6769 58.3532C61.5375 61.1073 61.9679 62.7426 61.968 63.259C61.9679 66.1852 58.9125 68.0357 52.8019 68.8103C57.4494 70.4455 61.5805 71.2632 65.1954 71.2632L72.8124 70.8759C77.0295 70.8759 80.5582 73.587 83.3986 79.0091L79.0092 85.7223C77.5459 87.6158 76.0398 88.8638 74.4907 89.4662C74.1463 87.7449 71.6504 86.6691 67.0029 86.2388C67.6052 86.2388 66.3142 86.1096 63.1299 85.8515C52.3714 84.8186 45.2279 82.5379 41.6993 79.0091Z" fill="black"/>
</svg>
