<svg width="79" height="85" viewBox="0 0 79 85" fill="none" xmlns="http://www.w3.org/2000/svg">
<path d="M39.1173 84.9477C21.99 84.9477 13.2973 82.0645 13.0391 76.298C12.6088 68.3799 11.2747 62.3983 9.037 58.3532C8.09027 56.7179 6.75624 54.7384 5.0349 52.4146C2.10864 48.5416 0.473379 45.2711 0.129112 42.603C0.0430412 41.9145 0 41.1829 0 40.4083C0 34.9861 2.28077 30.7258 6.84229 27.6274C7.96117 26.9389 9.12305 26.3794 10.328 25.9491C14.8895 24.3138 19.408 24.572 23.8835 26.7237C25.5187 27.4983 27.154 28.5311 28.7893 29.8221L28.9184 29.9512C28.9184 28.1438 29.0044 26.2073 29.1766 24.1417C29.1766 23.5392 29.4778 22.7216 30.0803 21.6888C31.4573 19.4511 33.0926 17.6867 34.9861 16.3957C35.3303 16.2236 35.6746 16.0084 36.0189 15.7502V12.6518L30.7258 9.55341V4.90582H35.5025L37.1808 0H41.0538L42.7321 4.90582H47.5088V9.55341L42.2157 12.6518V15.7502C46.6911 18.5904 48.9719 21.4306 49.058 24.2708C49.2301 25.9921 49.3162 27.8856 49.3162 29.9512L49.4453 29.8221C54.8675 25.2606 60.5479 23.7974 66.4864 25.4327C68.0357 25.863 69.4988 26.5085 70.8758 27.3692C75.6956 30.2955 78.1485 34.6418 78.2346 40.4083C78.2346 43.8509 76.5132 47.9391 73.0705 52.6728C70.2303 56.6318 68.466 59.5151 67.7774 61.3225C66.3143 65.1954 65.4536 70.1873 65.1955 76.298C65.0233 82.0645 56.3306 84.9477 39.1173 84.9477ZM39.1173 41.4411L42.8612 35.5025C43.4636 34.2115 43.937 33.0066 44.2813 31.8877C44.4534 31.2852 44.5395 30.0373 44.5395 28.1438C44.5395 23.0659 42.7751 20.5269 39.2464 20.5269C35.5455 20.5269 33.6951 23.0659 33.6951 28.1438C33.6951 30.0373 33.7811 31.2852 33.9533 31.8877C34.6418 34.2115 36.1049 36.9656 38.3427 40.1501C38.8591 40.7525 39.1173 41.1829 39.1173 41.4411ZM73.587 41.1829C73.587 37.3099 72.296 34.3406 69.7139 32.275C67.5623 30.4676 65.0233 29.5639 62.0971 29.5639C58.3962 29.5639 54.3941 31.4573 50.0908 35.2443C45.0128 39.6337 42.1296 45.5723 41.4411 53.0601C41.4411 53.6625 43.0333 54.351 46.2178 55.1257C49.9186 55.8142 56.2015 56.1585 65.0664 56.1585L70.8758 48.4125C72.6832 45.6583 73.587 43.2485 73.587 41.1829ZM39.1173 58.6114C36.9656 59.5581 30.4245 60.3757 19.4941 61.0643C17.8588 61.1503 16.5248 61.2364 15.492 61.3225C16.3527 64.593 16.9121 68.2078 17.1703 72.1669C23.1089 70.2734 30.4245 69.3267 39.1173 69.3267C47.9821 69.3267 55.2978 70.2734 61.0643 72.1669C61.3225 67.8635 61.8819 64.2487 62.7426 61.3225L43.6358 59.7733C42.0005 59.5151 40.4943 59.1278 39.1173 58.6114ZM4.6476 41.1829C4.6476 43.851 6.75624 47.8961 10.9735 53.3183C12.0063 54.6093 12.7379 55.556 13.1682 56.1585H15.492C24.3568 56.1585 30.8118 55.556 34.857 54.3511C36.148 54.0068 36.7935 53.5765 36.7935 53.0601C36.1049 45.5723 33.2217 39.6337 28.1438 35.2443C23.9265 31.4573 19.9244 29.5639 16.1375 29.5639C14.9326 29.5639 13.6416 29.8221 12.2645 30.3385C8.82182 31.1991 6.49802 33.4799 5.2931 37.1808L4.6476 40.6665V41.1829ZM39.1173 80.3002C47.2075 80.3002 52.8019 79.7837 55.9003 78.751C56.6749 78.4927 57.0622 78.1915 57.0622 77.8472C57.0622 75.6095 51.1236 74.4906 39.2464 74.4906C34.6848 74.4906 30.2524 74.7919 25.9491 75.3944C22.7646 75.9108 21.1724 76.7284 21.1724 77.8472C21.1724 79.1382 26.2503 79.9559 36.4062 80.3002C37.439 80.3002 38.3427 80.3002 39.1173 80.3002Z" fill="black"/>
</svg>
