<svg width="65" height="76" viewBox="0 0 65 76" fill="none" xmlns="http://www.w3.org/2000/svg">
<path d="M17.6867 25.6909V48.5415H47.1215V25.6909H17.6867ZM2.45288 75.7816L0 73.3287V64.4209L13.1682 51.1236V25.3036L1.8074 15.3629V3.61479L5.5513 0H17.1703L19.365 2.19469V5.5513H23.1089V2.19469L25.3036 0H39.5046L41.6993 2.19469V5.5513H45.3141V2.19469L47.6379 0H59.2569L63.0008 3.61479V15.3629L51.64 25.3036V51.1236L64.8082 64.4209V73.3287L62.3553 75.7816H2.45288ZM4.51852 65.5827V70.6176H60.2896V65.5827H4.51852ZM17.1703 52.8018L8.64969 61.0643H56.1585L47.6379 52.8018H17.1703ZM27.4983 5.42218V8.77878L25.5618 10.5862H17.1703L15.2338 8.77878V5.16399H8.00418L6.3259 6.97139V14.201L15.1047 21.3015H49.7035L58.4823 14.201V6.97139L56.804 5.16399H49.5744V8.77878L47.6379 10.5862H39.2464L37.3099 8.77878V5.42218H27.4983Z" fill="black"/>
</svg>
