<svg width="90" height="84" viewBox="0 0 90 84" fill="none" xmlns="http://www.w3.org/2000/svg">
<path d="M41.8284 54.3511H47.5088C48.7996 54.3511 50.3488 54.3941 52.1563 54.4801L64.9373 55.2547H65.0663C66.6154 55.2547 67.39 55.0396 67.3901 54.6092V54.0928C67.39 51.5109 61.6666 49.8326 50.2198 49.058C48.1541 48.8858 46.3468 48.7998 44.7977 48.7998C36.363 48.7998 29.8651 49.6604 25.3036 51.3818C23.238 52.1563 22.2052 53.06 22.2052 54.0928V54.6092C22.2052 55.0396 22.9798 55.2547 24.529 55.2547L41.8284 54.3511ZM65.7119 60.1605C58.9125 59.2999 51.9411 58.8695 44.7977 58.8695C37.3098 58.8695 30.3385 59.2999 23.8835 60.1605C24.9163 61.0212 25.4327 62.6995 25.4327 65.1954C25.4327 66.8307 25.1745 67.8205 24.6581 68.1647C29.8221 67.218 36.5352 66.7446 44.7977 66.7446C53.0599 66.7446 59.7731 67.218 64.9373 68.1647C64.4207 67.8205 64.1625 66.8307 64.1626 65.1954C64.1625 62.6995 64.679 61.0212 65.7119 60.1605ZM44.7977 71.2631C40.4082 71.2631 35.5024 71.4783 30.0803 71.9086C25.863 72.2529 23.7544 73.2427 23.7544 74.8779C23.7544 77.0296 30.7688 78.1054 44.7977 78.1054C58.8264 78.1054 65.8408 77.0296 65.8409 74.8779C65.8408 74.1894 65.2814 73.5439 64.1626 72.9414C60.892 71.8226 54.437 71.2631 44.7977 71.2631ZM44.7977 3.74388C42.6459 3.74388 41.57 4.77667 41.5702 6.84227C41.57 9.08 42.6459 10.1989 44.7977 10.1989C46.8631 10.1989 47.896 9.08 47.8961 6.84227C47.896 4.77667 46.8631 3.74388 44.7977 3.74388ZM44.7977 0C47.8959 0 50.0476 1.42007 51.2527 4.26028L51.8981 6.84227V7.22958C51.898 7.74597 51.5538 8.82182 50.8654 10.4571C49.6603 13.9858 49.0579 17.0412 49.058 19.6232C49.0579 23.8404 50.0046 30.0803 51.8981 38.3427C56.5456 28.5311 58.8694 21.1293 58.8695 16.1375L58.0949 10.5862C58.0948 7.57385 59.4289 5.42218 62.097 4.13118C63.0436 3.61479 64.0765 3.3566 65.1954 3.3566C68.2937 3.3566 70.4884 4.73364 71.7795 7.48778C72.2958 8.52058 72.554 9.55338 72.5541 10.5862C72.554 12.8239 71.7794 14.5883 70.2303 15.8793C67.9064 18.2031 66.7015 21.99 66.6155 27.2401C66.6154 29.4778 66.8306 33.0926 67.261 38.0845C72.8553 32.318 75.6524 27.6274 75.6525 24.0126L75.007 18.9777C75.0069 16.1375 76.2979 14.0288 78.88 12.6518C79.9127 12.0493 80.9886 11.7481 82.1075 11.7481C85.0337 11.7481 87.2284 13.0821 88.6916 15.7502L89.4662 18.2031V18.9777C89.4661 22.5064 87.4866 25.1745 83.5276 26.9819C83.3554 30.6827 81.9353 37.9554 79.2673 48.7998C79.0951 49.3162 78.966 49.7895 78.88 50.2198C78.8799 51.4248 77.5028 53.4904 74.7488 56.4166C71.0478 60.1175 69.1974 63.0007 69.1975 65.0663C69.1974 66.013 70.2302 68.552 72.2959 72.6832C72.6401 73.4578 72.8122 74.6197 72.8123 76.1689V77.0726C72.7261 77.3308 72.6831 77.632 72.6833 77.9763V78.1054L72.8123 78.2345C72.8122 81.3329 64.5068 83.0543 47.8961 83.3985C46.7771 83.3985 45.7012 83.3985 44.6685 83.3985L39.2464 83.2694H39.1172C31.0269 83.0112 24.8732 82.3227 20.656 81.2038C17.9879 80.4292 16.6539 79.4395 16.6539 78.2345C16.74 78.1485 16.74 77.632 16.6539 76.6853C16.5678 76.5132 16.5678 76.3411 16.6539 76.1689C16.6539 74.1894 17.2994 71.9086 18.5904 69.3266C19.6232 67.261 20.1396 65.8409 20.1396 65.0663C20.1396 63.6892 19.408 62.054 17.9449 60.1605L11.619 52.931C10.9305 51.9842 10.5862 51.0805 10.5862 50.2198C7.91811 39.2894 6.41197 32.1889 6.06769 28.9184C5.98163 28.2298 5.93858 27.5843 5.93858 26.9819C1.97952 25.1745 0 22.5064 0 18.9777C0 16.1375 1.29098 14.0288 3.87297 12.6518C4.99184 12.0493 6.11072 11.7481 7.22957 11.7481C10.2419 11.7481 12.3936 13.1251 13.6846 15.8793C14.201 16.826 14.4592 17.8588 14.4592 18.9777L13.8137 24.0126C13.8137 27.7995 16.5678 32.4901 22.0761 38.0845C22.5064 34.2975 22.7216 30.6827 22.7216 27.2401C22.7216 22.5064 22.1621 19.365 21.0433 17.8158C20.6129 17.2133 19.9675 16.5248 19.1068 15.7502C17.5576 14.7174 16.783 12.9961 16.783 10.5862C16.783 7.57385 18.2031 5.37915 21.0433 4.00209C21.99 3.57174 23.0228 3.3566 24.1417 3.3566C27.154 3.3566 29.3057 4.73364 30.5967 7.48778C31.113 8.43451 31.3711 9.46732 31.3712 10.5862L30.5967 16.0084V16.1375C30.5967 21.0433 32.9204 28.445 37.5681 38.3427C39.3754 30.5106 40.279 24.2708 40.2791 19.6232C40.279 16.1805 39.6336 12.91 38.3427 9.81157C37.8262 8.60664 37.568 7.74597 37.5681 7.22958C37.568 4.21724 38.945 2.0656 41.6992 0.774582C42.6459 0.258192 43.6787 0 44.7977 0ZM82.1075 15.8793C80.7304 15.8793 79.7406 16.5678 79.1382 17.9449C79.0521 18.2891 79.009 18.6334 79.0091 18.9777C79.009 20.699 79.7836 21.7748 81.3329 22.2052C81.591 22.2912 81.8492 22.3343 82.1075 22.3343C84.2591 22.3343 85.3349 21.2154 85.335 18.9777C85.3349 16.9121 84.2591 15.8793 82.1075 15.8793ZM65.1954 7.61688C63.7322 7.61688 62.7424 8.34845 62.2261 9.81157L62.097 10.8444C62.0969 12.3936 62.8285 13.4264 64.2917 13.9428C64.5498 14.0288 64.8511 14.0719 65.1954 14.0719C67.4331 14.0719 68.5519 12.996 68.552 10.8444C68.5519 8.69273 67.4331 7.61688 65.1954 7.61688ZM24.1417 7.61688C21.99 7.61688 20.9142 8.69273 20.9142 10.8444C20.9142 12.996 21.99 14.0719 24.1417 14.0719C26.2073 14.0719 27.2401 12.996 27.2401 10.8444C27.2401 8.69273 26.2073 7.61688 24.1417 7.61688ZM7.22957 15.8793C5.07792 15.8793 4.00209 16.9121 4.00209 18.9777C4.00209 21.2154 5.07792 22.3343 7.22957 22.3343C9.29518 22.3343 10.328 21.2154 10.328 18.9777C10.328 17.5146 9.59642 16.5248 8.1333 16.0084C7.87508 15.9223 7.57385 15.8793 7.22957 15.8793ZM44.7977 24.1417C43.5926 31.7155 42.0434 37.1807 40.1501 40.5373L38.2136 43.6358V43.7649C37.9552 43.5067 36.8364 42.2156 34.857 39.8918C32.3609 36.9656 29.736 31.4143 26.9819 23.238C27.154 24.4429 27.2401 25.6909 27.2401 26.9819C27.2401 31.027 26.5085 37.2668 25.0453 45.7014C20.3978 42.9472 15.8793 38.5578 11.4899 32.5331C12.953 39.9349 14.0719 44.7976 14.8465 47.1214C15.3629 48.8428 16.0084 49.8326 16.783 50.0907C23.8404 46.0456 33.1786 44.0231 44.7977 44.0231C56.5026 44.0231 65.8408 46.0456 72.8123 50.0907C74.3614 49.5744 76.0827 43.7218 77.9763 32.5331C73.5007 38.73 69.0253 43.1194 64.55 45.7014C63.0867 38.2136 62.3551 32.318 62.3553 28.0147C62.3551 26.8958 62.4412 25.3036 62.6134 23.238C60.892 28.402 58.9125 33.0065 56.6749 37.0517C55.4698 38.859 54.1357 40.5804 52.6727 42.2157C51.9841 42.9042 51.5538 43.4206 51.3817 43.7649L48.5415 38.7299C48.4554 38.3857 48.3263 38.0414 48.1543 37.6972C47.4656 35.8037 46.3468 31.2852 44.7977 24.1417Z" fill="black"/>
</svg>
