<svg width="78" height="77" viewBox="0 0 78 77" fill="none" xmlns="http://www.w3.org/2000/svg">
<path d="M9.29517 45.8305C10.5001 45.8305 11.1026 46.6481 11.1026 48.2834C11.1026 50.435 10.0267 51.5109 7.87506 51.5109C7.01441 51.5109 6.58411 50.8223 6.58411 49.4453C6.58411 47.0354 7.48776 45.8305 9.29517 45.8305ZM18.5904 30.0803C17.3855 30.0803 16.783 29.3487 16.783 27.8856C16.783 25.5618 18.16 23.6683 20.9142 22.2052C22.1191 21.6027 23.238 21.3015 24.2708 21.3015C26.0782 21.3015 27.068 21.904 27.2401 23.1089C27.2401 25.0884 25.6909 26.9819 22.5925 28.7893C21.0433 29.65 19.7093 30.0803 18.5904 30.0803ZM19.6232 5.80949C19.9674 7.01442 20.1396 7.83208 20.1396 8.26239C20.1396 8.5206 20.0105 9.20912 19.7523 10.328C21.1293 10.328 23.0228 9.63946 25.4327 8.26239C23.1089 7.05747 21.1724 6.23981 19.6232 5.80949ZM4.26031 50.2199C4.77672 52.2855 6.15374 53.7916 8.39148 54.7383C9.25215 55.0826 10.0698 55.2548 10.8444 55.2548H11.1026C11.2747 55.2548 12.2215 54.7384 13.9428 53.7056C14.4592 53.3613 14.8896 53.1892 15.2338 53.1892H15.7502C16.1805 53.1892 16.3957 53.4474 16.3957 53.9637L15.6211 56.4167C15.6211 57.1913 16.2235 57.5786 17.4285 57.5786C17.6006 57.5786 18.6765 56.0724 20.656 53.0601C24.4429 47.2075 29.822 42.7751 36.7935 39.7628C37.482 35.1152 39.2033 31.027 41.9575 27.4983C42.646 26.5515 43.3345 26.0782 44.0231 26.0782C44.7977 26.0782 45.185 26.6376 45.185 27.7565C45.185 28.0147 44.4104 30.4676 42.8612 35.1152C42.2587 37.0947 41.9575 38.5578 41.9575 39.5046C41.9575 39.7628 42.0435 40.3222 42.2157 41.1829C42.2157 47.2936 39.6336 53.7056 34.4697 60.4188C31.027 65.0664 29.1336 68.7672 28.7893 71.5213H71.3922C71.7365 67.5623 71.9086 64.636 71.9086 62.7426C71.9086 45.0128 66.3574 30.8549 55.2548 20.2687C51.8982 17.1703 49.187 15.6211 47.1215 15.6211H39.3755C38.6869 15.2768 37.9984 13.5555 37.3099 10.4571C36.7935 7.96115 36.148 6.41195 35.3734 5.80949C34.3405 8.90788 31.1561 11.3178 25.82 13.0391C22.9798 13.8998 21.0003 14.7604 19.8814 15.6211C18.9347 18.6334 16.1375 24.7442 11.4899 33.9533C6.92835 43.0763 4.5185 48.4985 4.26031 50.2199ZM76.5563 76.298H22.4634C22.8076 70.3594 25.0454 64.6791 29.1766 59.2569C32.361 54.9535 34.2545 52.3285 34.857 51.3817C36.0619 49.4883 36.7935 47.2075 37.0517 44.5395C31.4574 46.9493 27.111 50.392 24.0126 54.8675L22.2052 57.8368C20.9142 59.9023 20.0965 61.0642 19.7523 61.3224C19.2359 61.7528 18.6765 61.968 18.074 61.968C15.4059 61.968 13.5985 61.0643 12.6518 59.2569C12.4796 58.9987 12.3936 58.6974 12.3936 58.3531C11.5329 58.7835 10.6723 58.9987 9.81158 58.9987C5.68039 58.9987 2.40986 56.4167 0 51.2527C0.68853 47.4657 4.30331 38.73 10.8444 25.0454C11.5329 23.7544 12.0494 22.7216 12.3936 21.947C14.9756 16.1805 16.2666 11.8342 16.2666 8.90788C16.2666 8.47756 16.0084 6.0677 15.492 1.6783H16.5248C21.1724 1.6783 25.6048 3.14144 29.8221 6.0677C32.1459 2.02256 34.0824 0 35.6316 0C38.3857 1.46314 40.2792 3.52874 41.312 6.19681L42.7321 10.4571C43.5927 10.285 44.3243 10.1989 44.9268 10.1989C51.8121 10.1989 58.6114 14.5883 65.3246 23.3671C73.1566 33.609 77.0726 47.6378 77.0726 65.4536C77.0726 69.4988 76.9005 73.1136 76.5563 76.298Z" fill="black"/>
</svg>
